<svg xmlns="http://www.w3.org/2000/svg" xmlns:xlink="http://www.w3.org/1999/xlink" version="1.1" viewBox="0 0 4217 3100" style="background: #ffffff"><defs><style>@import url(https://fonts.googleapis.com/css?family=Open+Sans:400,700);</style></defs><defs joint-selector="defs"></defs><g joint-selector="layers"  transform="matrix(1,0,0,1,0,0)"><g ></g><g ><g   id="j_157"  transform="translate(20,3062.5)"><g id="v-2221"><text  id="v-2222" font-size="22px" xml:space="preserve" y="0.8em" font-weight="normal" text-anchor="start" fill="#aaaaaa" pointer-events="none" display="block" font-family="Open Sans"><tspan dy="0" >Sunday, April 21, 2024 at 9:37 AM Eastern Daylight Time</tspan></text></g></g><g   id="j_156"  transform="translate(20,3017.5)"><g id="v-2219"><text  id="v-2220" font-size="36px" xml:space="preserve" y="0.8em" font-weight="normal" text-anchor="start" fill="#000000" pointer-events="none" display="block" font-family="Open Sans"><tspan dy="0" >[Component] Transaction Tracker - Web Application</tspan></text></g></g><g   id="j_158"  transform="translate(903,199)" style=""><g  id="v-2226" style="opacity: 1;"><rect  x="0" y="160" width="400" height="240" rx="70" id="v-2228" stroke="#073b6f" stroke-width="2" pointer-events="visiblePainted" fill="#08427b" style="fill: rgb(8, 66, 123); stroke: rgb(7, 59, 111);"></rect><circle  cx="200" cy="88.88888888888889" r="88.88888888888889" id="v-2227" stroke="#073b6f" stroke-width="2" pointer-events="visiblePainted" fill="#08427b" style="fill: rgb(8, 66, 123); stroke: rgb(7, 59, 111);"></circle><line  x1="80" y1="266.6666666666667" x2="80" y2="400" id="v-2234" stroke="#073b6f" stroke-width="2" style="stroke: rgb(7, 59, 111);"></line><line  x1="320" y1="266.6666666666667" x2="320" y2="400" id="v-2235" stroke="#073b6f" stroke-width="2" style="stroke: rgb(7, 59, 111);"></line><text  id="v-2229" font-size="34" xml:space="preserve" y="0.8em" font-weight="bold" text-anchor="middle" pointer-events="visible" font-family="Open Sans" fill="#ffffff" transform="matrix(1,0,0,1,200,198.1)" style="fill: rgb(255, 255, 255);"><tspan dy="0" >User</tspan></text><text  id="v-2230" font-size="17" xml:space="preserve" y="0.8em" text-anchor="middle" font-family="Open Sans" fill="#ffffff" transform="matrix(1,0,0,1,200,240.6)" style="fill: rgb(255, 255, 255);"><tspan dy="0" >[Person]</tspan></text><text  id="v-2231" font-size="24" xml:space="preserve" y="0.8em" text-anchor="middle" font-family="Open Sans" fill="#ffffff" transform="matrix(1,0,0,1,200,271.9)" style="fill: rgb(255, 255, 255);"><tspan dy="0" >The person whose transcations</tspan><tspan dy="1.2em" x="0" >are being tracked in this</tspan><tspan dy="1.2em" x="0" >deployment of the system</tspan></text><g  id="v-2232" font-weight="normal" text-anchor="middle" color="#ffffff" transform="matrix(1,0,0,1,197.5,371.9)" display="none" style="fill: rgb(255, 255, 255);"><g ></g><g ></g><g ></g><g ></g></g><image  id="v-2233"></image></g></g><g   id="j_159"  transform="translate(199,799)" style=""><g  id="v-2236" style="opacity: 1;"><rect  id="v-2237" rx="20" ry="20" stroke="#3c7fc0" stroke-width="2" pointer-events="visiblePainted" fill="#438dd5" width="450" height="300" style="fill: rgb(67, 141, 213); stroke: rgb(60, 127, 192);"></rect><text  id="v-2238" font-size="34" xml:space="preserve" y="0.8em" font-weight="bold" text-anchor="middle" pointer-events="visible" font-family="Open Sans" fill="#ffffff" transform="matrix(1,0,0,1,225,113.1)" style="fill: rgb(255, 255, 255);"><tspan dy="0" >Commander</tspan></text><text  id="v-2239" font-size="17" xml:space="preserve" y="0.8em" text-anchor="middle" font-family="Open Sans" fill="#ffffff" transform="matrix(1,0,0,1,225,155.6)" style="fill: rgb(255, 255, 255);"><tspan dy="0" >[Container]</tspan></text><text  id="v-2240" font-size="24" xml:space="preserve" display="none" y="0.8em" text-anchor="middle" font-family="Open Sans" fill="#ffffff" transform="matrix(1,0,0,1,225,186.9)" style="fill: rgb(255, 255, 255);"><tspan dy="0" style="fill-opacity: 0; stroke-opacity: 0;" >-</tspan></text><g  id="v-2241" color="#ffffff" transform="matrix(1,0,0,1,222.5,196.9)" display="none" style="fill: rgb(255, 255, 255);"><g ></g><g ></g><g ></g><g ></g></g><image  id="v-2242"></image></g></g><g   id="j_160"  transform="translate(2699,2599)" style=""><g  id="v-2243" style="opacity: 1;"><rect  id="v-2244" rx="20" ry="20" stroke="#3c7fc0" stroke-width="2" pointer-events="visiblePainted" fill="#438dd5" width="450" height="300" style="fill: rgb(67, 141, 213); stroke: rgb(60, 127, 192);"></rect><text  id="v-2245" font-size="34" xml:space="preserve" y="0.8em" font-weight="bold" text-anchor="middle" pointer-events="visible" font-family="Open Sans" fill="#ffffff" transform="matrix(1,0,0,1,225,98.1)" style="fill: rgb(255, 255, 255);"><tspan dy="0" >Library</tspan></text><text  id="v-2246" font-size="17" xml:space="preserve" y="0.8em" text-anchor="middle" font-family="Open Sans" fill="#ffffff" transform="matrix(1,0,0,1,225,140.6)" style="fill: rgb(255, 255, 255);"><tspan dy="0" >[Container]</tspan></text><text  id="v-2247" font-size="24" xml:space="preserve" y="0.8em" text-anchor="middle" font-family="Open Sans" fill="#ffffff" transform="matrix(1,0,0,1,225,171.9)" style="fill: rgb(255, 255, 255);"><tspan dy="0" >Terminal CLI</tspan></text><g  id="v-2248" color="#ffffff" transform="matrix(1,0,0,1,210,211.9)" display="none" style="fill: rgb(255, 255, 255);"><g  transform="translate(5 0)"><svg xmlns="http://www.w3.org/2000/svg" width="20" height="20" fill="currentColor" viewBox="0 0 16 16"><path fill-rule="evenodd" d="M6.5 12a5.5 5.5 0 1 0 0-11 5.5 5.5 0 0 0 0 11zM13 6.5a6.5 6.5 0 1 1-13 0 6.5 6.5 0 0 1 13 0z"></path><path d="M10.344 11.742c.03.04.062.078.098.115l3.85 3.85a1 1 0 0 0 1.415-1.414l-3.85-3.85a1.007 1.007 0 0 0-.115-.1 6.538 6.538 0 0 1-1.398 1.4z"></path><path fill-rule="evenodd" d="M6.5 3a.5.5 0 0 1 .5.5V6h2.5a.5.5 0 0 1 0 1H7v2.5a.5.5 0 0 1-1 0V7H3.5a.5.5 0 0 1 0-1H6V3.5a.5.5 0 0 1 .5-.5z"></path></svg></g><g ></g><g ></g><g ></g></g><image  id="v-2249"></image></g></g><g   id="j_162"  transform="translate(838,779)" style=""><g id="v-2260"><rect  id="v-2261" width="3048" height="1611" rx="0" ry="0" fill="#ffffff" stroke="#3c7fc0" stroke-width="1" stroke-dasharray="20,20" pointer-events="none"></rect><text  id="v-2262" font-size="24px" xml:space="preserve" y="1572" font-weight="normal" fill="#3c7fc0" text-anchor="start" pointer-events="visible" font-family="Open Sans" transform="matrix(1,0,0,1,15,0)"><tspan dy="0" >Web Application</tspan></text><text  id="v-2263" font-size="17px" xml:space="preserve" y="1596" font-weight="normal" fill="#3c7fc0" text-anchor="start" pointer-events="visible" font-family="Open Sans" transform="matrix(1,0,0,1,15,0)"><tspan dy="0" >[Container]</tspan></text><image  id="v-2264" pointer-events="visible"></image></g></g><g   id="j_161"  transform="translate(2666,799)" style=""><g  id="v-2253" style="opacity: 1;"><rect  id="v-2254" rx="20" ry="20" stroke="#78a8d8" stroke-width="2" pointer-events="visiblePainted" fill="#85bbf0" width="450" height="300" style="fill: rgb(133, 187, 240); stroke: rgb(120, 168, 216);"></rect><text  id="v-2255" font-size="34" xml:space="preserve" y="0.8em" font-weight="bold" text-anchor="middle" pointer-events="visible" font-family="Open Sans" fill="#000000" transform="matrix(1,0,0,1,225,83.1)" style="fill: rgb(0, 0, 0);"><tspan dy="0" >Payments Table</tspan></text><text  id="v-2256" font-size="17" xml:space="preserve" y="0.8em" text-anchor="middle" font-family="Open Sans" fill="#000000" transform="matrix(1,0,0,1,225,125.6)" style="fill: rgb(0, 0, 0);"><tspan dy="0" >[Component]</tspan></text><text  id="v-2257" font-size="24" xml:space="preserve" y="0.8em" text-anchor="middle" font-family="Open Sans" fill="#000000" transform="matrix(1,0,0,1,225,156.9)" style="fill: rgb(0, 0, 0);"><tspan dy="0" >Displays payments in a tabular</tspan><tspan dy="1.2em" x="0" >format</tspan></text><g  id="v-2258" color="#000000" transform="matrix(1,0,0,1,222.5,226.9)" display="none" style="fill: rgb(0, 0, 0);"><g ></g><g ></g><g ></g><g ></g></g><image  id="v-2259"></image></g></g><g   id="j_163"  transform="translate(3416,1399)" style=""><g  id="v-2271" style="opacity: 1;"><rect  id="v-2272" rx="20" ry="20" stroke="#78a8d8" stroke-width="2" pointer-events="visiblePainted" fill="#85bbf0" width="450" height="300" style="fill: rgb(133, 187, 240); stroke: rgb(120, 168, 216);"></rect><text  id="v-2273" font-size="34" xml:space="preserve" y="0.8em" font-weight="bold" text-anchor="middle" pointer-events="visible" font-family="Open Sans" fill="#000000" transform="matrix(1,0,0,1,225,53.1)" style="fill: rgb(0, 0, 0);"><tspan dy="0" >Splitwise Checkbox</tspan></text><text  id="v-2274" font-size="17" xml:space="preserve" y="0.8em" text-anchor="middle" font-family="Open Sans" fill="#000000" transform="matrix(1,0,0,1,225,95.6)" style="fill: rgb(0, 0, 0);"><tspan dy="0" >[Component]</tspan></text><text  id="v-2275" font-size="24" xml:space="preserve" y="0.8em" text-anchor="middle" font-family="Open Sans" fill="#000000" transform="matrix(1,0,0,1,225,126.9)" style="fill: rgb(0, 0, 0);"><tspan dy="0" >Toggles the integration of</tspan><tspan dy="1.2em" x="0" >transactions with Splitwise, enabling</tspan><tspan dy="1.2em" x="0" >selective recording of shared</tspan><tspan dy="1.2em" x="0" >expenses</tspan></text><g  id="v-2276" color="#000000" transform="matrix(1,0,0,1,222.5,256.9)" display="none" style="fill: rgb(0, 0, 0);"><g ></g><g ></g><g ></g><g ></g></g><image  id="v-2277"></image></g></g><g   id="j_164"  transform="translate(2666,1399)" style=""><g  id="v-2281" style="opacity: 1;"><rect  id="v-2282" rx="20" ry="20" stroke="#78a8d8" stroke-width="2" pointer-events="visiblePainted" fill="#85bbf0" width="450" height="300" style="fill: rgb(133, 187, 240); stroke: rgb(120, 168, 216);"></rect><text  id="v-2283" font-size="34" xml:space="preserve" y="0.8em" font-weight="bold" text-anchor="middle" pointer-events="visible" font-family="Open Sans" fill="#000000" transform="matrix(1,0,0,1,225,83.1)" style="fill: rgb(0, 0, 0);"><tspan dy="0" >Ignore Button</tspan></text><text  id="v-2284" font-size="17" xml:space="preserve" y="0.8em" text-anchor="middle" font-family="Open Sans" fill="#000000" transform="matrix(1,0,0,1,225,125.6)" style="fill: rgb(0, 0, 0);"><tspan dy="0" >[Component]</tspan></text><text  id="v-2285" font-size="24" xml:space="preserve" y="0.8em" text-anchor="middle" font-family="Open Sans" fill="#000000" transform="matrix(1,0,0,1,225,156.9)" style="fill: rgb(0, 0, 0);"><tspan dy="0" >Ignores payment when in table and</tspan><tspan dy="1.2em" x="0" >when calculating the total</tspan></text><g  id="v-2286" color="#000000" transform="matrix(1,0,0,1,222.5,226.9)" display="none" style="fill: rgb(0, 0, 0);"><g ></g><g ></g><g ></g><g ></g></g><image  id="v-2287"></image></g></g><g   id="j_165"  transform="translate(1608,1399)" style=""><g  id="v-2291" style="opacity: 1;"><rect  id="v-2292" rx="20" ry="20" stroke="#78a8d8" stroke-width="2" pointer-events="visiblePainted" fill="#85bbf0" width="450" height="300" style="fill: rgb(133, 187, 240); stroke: rgb(120, 168, 216);"></rect><text  id="v-2293" font-size="34" xml:space="preserve" y="0.8em" font-weight="bold" text-anchor="middle" pointer-events="visible" font-family="Open Sans" fill="#000000" transform="matrix(1,0,0,1,225,83.1)" style="fill: rgb(0, 0, 0);"><tspan dy="0" >Refresh Button</tspan></text><text  id="v-2294" font-size="17" xml:space="preserve" y="0.8em" text-anchor="middle" font-family="Open Sans" fill="#000000" transform="matrix(1,0,0,1,225,125.6)" style="fill: rgb(0, 0, 0);"><tspan dy="0" >[Component]</tspan></text><text  id="v-2295" font-size="24" xml:space="preserve" y="0.8em" text-anchor="middle" font-family="Open Sans" fill="#000000" transform="matrix(1,0,0,1,225,156.9)" style="fill: rgb(0, 0, 0);"><tspan dy="0" >Reloads payments data from Plaid</tspan><tspan dy="1.2em" x="0" >from</tspan></text><g  id="v-2296" color="#000000" transform="matrix(1,0,0,1,222.5,226.9)" display="none" style="fill: rgb(0, 0, 0);"><g ></g><g ></g><g ></g><g ></g></g><image  id="v-2297"></image></g></g><g   id="j_166"  transform="translate(858,1399)" style=""><g  id="v-2301" style="opacity: 1;"><rect  id="v-2302" rx="20" ry="20" stroke="#78a8d8" stroke-width="2" pointer-events="visiblePainted" fill="#85bbf0" width="450" height="300" style="fill: rgb(133, 187, 240); stroke: rgb(120, 168, 216);"></rect><text  id="v-2303" font-size="34" xml:space="preserve" y="0.8em" font-weight="bold" text-anchor="middle" pointer-events="visible" font-family="Open Sans" fill="#000000" transform="matrix(1,0,0,1,225,83.1)" style="fill: rgb(0, 0, 0);"><tspan dy="0" >API Service</tspan></text><text  id="v-2304" font-size="17" xml:space="preserve" y="0.8em" text-anchor="middle" font-family="Open Sans" fill="#000000" transform="matrix(1,0,0,1,225,125.6)" style="fill: rgb(0, 0, 0);"><tspan dy="0" >[Component]</tspan></text><text  id="v-2305" font-size="24" xml:space="preserve" y="0.8em" text-anchor="middle" font-family="Open Sans" fill="#000000" transform="matrix(1,0,0,1,225,156.9)" style="fill: rgb(0, 0, 0);"><tspan dy="0" >Webhook to reload payments data</tspan><tspan dy="1.2em" x="0" >from Plaid</tspan></text><g  id="v-2306" color="#000000" transform="matrix(1,0,0,1,222.5,226.9)" display="none" style="fill: rgb(0, 0, 0);"><g ></g><g ></g><g ></g><g ></g></g><image  id="v-2307"></image></g></g><g   id="j_167"  transform="translate(2020,1999)" style=""><g  id="v-2311" style="opacity: 1;"><rect  id="v-2312" rx="20" ry="20" stroke="#78a8d8" stroke-width="2" pointer-events="visiblePainted" fill="#85bbf0" width="450" height="300" style="fill: rgb(133, 187, 240); stroke: rgb(120, 168, 216);"></rect><text  id="v-2313" font-size="34" xml:space="preserve" y="0.8em" font-weight="bold" text-anchor="middle" pointer-events="visible" font-family="Open Sans" fill="#000000" transform="matrix(1,0,0,1,225,83.1)" style="fill: rgb(0, 0, 0);"><tspan dy="0" >Payments Cache</tspan></text><text  id="v-2314" font-size="17" xml:space="preserve" y="0.8em" text-anchor="middle" font-family="Open Sans" fill="#000000" transform="matrix(1,0,0,1,225,125.6)" style="fill: rgb(0, 0, 0);"><tspan dy="0" >[Component]</tspan></text><text  id="v-2315" font-size="24" xml:space="preserve" y="0.8em" text-anchor="middle" font-family="Open Sans" fill="#000000" transform="matrix(1,0,0,1,225,156.9)" style="fill: rgb(0, 0, 0);"><tspan dy="0" >Caches the payments data to avoid</tspan><tspan dy="1.2em" x="0" >repetetive API calls</tspan></text><g  id="v-2316" color="#000000" transform="matrix(1,0,0,1,222.5,226.9)" display="none" style="fill: rgb(0, 0, 0);"><g ></g><g ></g><g ></g><g ></g></g><image  id="v-2317"></image></g></g><g   id="j_168"  transform="translate(3416,799)" style=""><g  id="v-2321" style="opacity: 1;"><rect  id="v-2322" rx="20" ry="20" stroke="#78a8d8" stroke-width="2" pointer-events="visiblePainted" fill="#85bbf0" width="450" height="300" style="fill: rgb(133, 187, 240); stroke: rgb(120, 168, 216);"></rect><text  id="v-2323" font-size="34" xml:space="preserve" y="0.8em" font-weight="bold" text-anchor="middle" pointer-events="visible" font-family="Open Sans" fill="#000000" transform="matrix(1,0,0,1,225,83.1)" style="fill: rgb(0, 0, 0);"><tspan dy="0" >Admin Page</tspan></text><text  id="v-2324" font-size="17" xml:space="preserve" y="0.8em" text-anchor="middle" font-family="Open Sans" fill="#000000" transform="matrix(1,0,0,1,225,125.6)" style="fill: rgb(0, 0, 0);"><tspan dy="0" >[Component]</tspan></text><text  id="v-2325" font-size="24" xml:space="preserve" y="0.8em" text-anchor="middle" font-family="Open Sans" fill="#000000" transform="matrix(1,0,0,1,225,156.9)" style="fill: rgb(0, 0, 0);"><tspan dy="0" >Displays and configures user</tspan><tspan dy="1.2em" x="0" >credentials</tspan></text><g  id="v-2326" color="#000000" transform="matrix(1,0,0,1,222.5,226.9)" display="none" style="fill: rgb(0, 0, 0);"><g ></g><g ></g><g ></g><g ></g></g><image  id="v-2327"></image></g></g><g   id="j_169" ><path  stroke="#707070" d="M 450 1099 L 676 2393 C 677.3333333333333 2399.6666666666665 681.3333333333333 2403.6666666666665 688 2405 L 2699 2714" id="v-2341" stroke-width="2" stroke-dasharray="30 30" fill="none" style="opacity: 1;"></path><path  fill="black" stroke="black" d="M 0 0 0 0" transform="matrix(0.17208719046562532,0.9850817219285147,-0.9850817219285147,0.17208719046562532,450.20001220703125,1099)"></path><path  fill="#707070" stroke="#707070" d="M 20 0 L 0 10 L 20 20 z" id="v-2343" transform="matrix(-0.9883410425106557,-0.15225630919259203,0.15225630919259203,-0.9883410425106557,2697.4775465519306,2724.2233563295326)" style="opacity: 1;"></path><path  d="M 450 1099 L 676 2393 C 677.3333333333333 2399.6666666666665 681.3333333333333 2403.6666666666665 688 2405 L 2699 2714" id="v-2342" fill="none" style="cursor: auto; pointer-events: visiblepainted;"></path><g ><g id="v-2335"  label-idx="0" cursor="move" transform="matrix(1,0,0,1,1035.3548583984375,2458.372802734375)" style="cursor: default; opacity: 1;"><rect joint-selector="rect" id="v-2338" fill="#ffffff" rx="3" ry="3" pointer-events="none" width="128.14671325683594" height="91.54399490356445" transform="matrix(1,0,0,1,-64.1,-45.8)"></rect><text joint-selector="text" id="v-2337" font-size="24px" xml:space="preserve" y="0.8em" fill="#707070" text-anchor="middle" pointer-events="none" font-family="Open Sans" font-weight="normal" transform="matrix(1,0,0,1,0,-38.9)"><tspan dy="0" >Commands</tspan><tspan dy="1.2em" x="0" >sending</tspan><tspan dy="1.2em" x="0" >notification</tspan></text></g><g id="v-2336"  label-idx="1" cursor="move" transform="matrix(1,0,0,1,1025.3548583984375,2515.372802734375)" style="cursor: default; opacity: 1;"><rect joint-selector="rect" id="v-2340" fill="#ffffff" rx="3" ry="3"  width="0" height="0" transform="matrix(1,0,0,1,0,0)" display="none"></rect><text joint-selector="text" id="v-2339" fill="#000000" font-size="14" text-anchor="middle" pointer-events="none"></text></g></g><g  display="none" style="display: none;"><g  transform="translate(678, 2403)" id="v-2332"><circle  idx="0" r="10"></circle><path  idx="0" d="M16,5.333c-7.732,0-14,4.701-14,10.5c0,1.982,0.741,3.833,2.016,5.414L2,25.667l5.613-1.441c2.339,1.317,5.237,2.107,8.387,2.107c7.732,0,14-4.701,14-10.5C30,10.034,23.732,5.333,16,5.333z" transform="translate(5, -33)"></path><path  idx="0" transform="scale(.8) translate(9.5, -37)" d="M24.778,21.419 19.276,15.917 24.777,10.415 21.949,7.585 16.447,13.087 10.945,7.585 8.117,10.415 13.618,15.917 8.116,21.419 10.946,24.248 16.447,18.746 21.948,24.248z"><title>Remove vertex.</title></path></g></g><g  id="v-2345" display="none"><g  id="v-2333"><path  end="source" d="M 26 0 L 0 13 L 26 26 z"></path></g><g  id="v-2334"><path  end="target" d="M 26 0 L 0 13 L 26 26 z"></path></g></g><g  id="v-2344" display="none"><g  id="v-2331" transform="translate(456.8819171275235, 1138.4035431991833) "><g  event="remove"><circle r="11"></circle><path transform="scale(.8) translate(-16, -16)" d="M24.778,21.419 19.276,15.917 24.777,10.415 21.949,7.585 16.447,13.087 10.945,7.585 8.117,10.415 13.618,15.917 8.116,21.419 10.946,24.248 16.447,18.746 21.948,24.248z"></path><title>Remove link.</title></g><g  event="link:options"><circle r="11" transform="translate(25)"></circle><path fill="white" transform="scale(.55) translate(29, -16)" d="M31.229,17.736c0.064-0.571,0.104-1.148,0.104-1.736s-0.04-1.166-0.104-1.737l-4.377-1.557c-0.218-0.716-0.504-1.401-0.851-2.05l1.993-4.192c-0.725-0.91-1.549-1.734-2.458-2.459l-4.193,1.994c-0.647-0.347-1.334-0.632-2.049-0.849l-1.558-4.378C17.165,0.708,16.588,0.667,16,0.667s-1.166,0.041-1.737,0.105L12.707,5.15c-0.716,0.217-1.401,0.502-2.05,0.849L6.464,4.005C5.554,4.73,4.73,5.554,4.005,6.464l1.994,4.192c-0.347,0.648-0.632,1.334-0.849,2.05l-4.378,1.557C0.708,14.834,0.667,15.412,0.667,16s0.041,1.165,0.105,1.736l4.378,1.558c0.217,0.715,0.502,1.401,0.849,2.049l-1.994,4.193c0.725,0.909,1.549,1.733,2.459,2.458l4.192-1.993c0.648,0.347,1.334,0.633,2.05,0.851l1.557,4.377c0.571,0.064,1.148,0.104,1.737,0.104c0.588,0,1.165-0.04,1.736-0.104l1.558-4.377c0.715-0.218,1.399-0.504,2.049-0.851l4.193,1.993c0.909-0.725,1.733-1.549,2.458-2.458l-1.993-4.193c0.347-0.647,0.633-1.334,0.851-2.049L31.229,17.736zM16,20.871c-2.69,0-4.872-2.182-4.872-4.871c0-2.69,2.182-4.872,4.872-4.872c2.689,0,4.871,2.182,4.871,4.872C20.871,18.689,18.689,20.871,16,20.871z"></path><title>Link options.</title></g></g></g></g><g   id="j_170" ><path  stroke="#707070" d="M 3079 1099 L 3454 1399" id="v-2355" stroke-width="2" stroke-dasharray="30 30" fill="none" style="opacity: 1;"></path><path  fill="black" stroke="black" d="M 0 0 0 0" transform="matrix(0.7808688000832672,0.624695059254128,-0.624695059254128,0.7808688000832672,3078.5,1099)"></path><path  fill="#707070" stroke="#707070" d="M 20 0 L 0 10 L 20 20 z" id="v-2357" transform="matrix(-0.7808688416748548,-0.6246950072646416,0.6246950072646416,-0.7808688416748548,3447.253144594102,1406.8086902472076)" style="opacity: 1;"></path><path  d="M 3079 1099 L 3454 1399" id="v-2356" fill="none" style="cursor: auto; pointer-events: visiblepainted;"></path><g ><g id="v-2349"  label-idx="0" cursor="move" transform="matrix(1,0,0,1,3266.5,1249)" style="cursor: default; opacity: 1;"><rect joint-selector="rect" id="v-2352" fill="#ffffff" rx="3" ry="3" pointer-events="none" width="93.30517578125" height="33.94399070739746" transform="matrix(1,0,0,1,-46.7,-17)"></rect><text joint-selector="text" id="v-2351" font-size="24px" xml:space="preserve" y="0.8em" fill="#707070" text-anchor="middle" pointer-events="none" font-family="Open Sans" font-weight="normal" transform="matrix(1,0,0,1,0,-10.1)"><tspan dy="0" >Includes</tspan></text></g><g id="v-2350"  label-idx="1" cursor="move" transform="matrix(1,0,0,1,3256.5,1276)" style="cursor: default; opacity: 1;"><rect joint-selector="rect" id="v-2354" fill="#ffffff" rx="3" ry="3"  width="0" height="0" transform="matrix(1,0,0,1,0,0)" display="none"></rect><text joint-selector="text" id="v-2353" fill="#000000" font-size="14" text-anchor="middle" pointer-events="none"></text></g></g><g  display="none" style="display: none;"></g><g  id="v-2359" display="none"><g  id="v-2347"><path  end="source" d="M 26 0 L 0 13 L 26 26 z"></path></g><g  id="v-2348"><path  end="target" d="M 26 0 L 0 13 L 26 26 z"></path></g></g><g  id="v-2358" display="none"><g  id="v-2346" transform="translate(3110.234752377721, 1123.987801902177) "><g  event="remove"><circle r="11"></circle><path transform="scale(.8) translate(-16, -16)" d="M24.778,21.419 19.276,15.917 24.777,10.415 21.949,7.585 16.447,13.087 10.945,7.585 8.117,10.415 13.618,15.917 8.116,21.419 10.946,24.248 16.447,18.746 21.948,24.248z"></path><title>Remove link.</title></g><g  event="link:options"><circle r="11" transform="translate(25)"></circle><path fill="white" transform="scale(.55) translate(29, -16)" d="M31.229,17.736c0.064-0.571,0.104-1.148,0.104-1.736s-0.04-1.166-0.104-1.737l-4.377-1.557c-0.218-0.716-0.504-1.401-0.851-2.05l1.993-4.192c-0.725-0.91-1.549-1.734-2.458-2.459l-4.193,1.994c-0.647-0.347-1.334-0.632-2.049-0.849l-1.558-4.378C17.165,0.708,16.588,0.667,16,0.667s-1.166,0.041-1.737,0.105L12.707,5.15c-0.716,0.217-1.401,0.502-2.05,0.849L6.464,4.005C5.554,4.73,4.73,5.554,4.005,6.464l1.994,4.192c-0.347,0.648-0.632,1.334-0.849,2.05l-4.378,1.557C0.708,14.834,0.667,15.412,0.667,16s0.041,1.165,0.105,1.736l4.378,1.558c0.217,0.715,0.502,1.401,0.849,2.049l-1.994,4.193c0.725,0.909,1.549,1.733,2.459,2.458l4.192-1.993c0.648,0.347,1.334,0.633,2.05,0.851l1.557,4.377c0.571,0.064,1.148,0.104,1.737,0.104c0.588,0,1.165-0.04,1.736-0.104l1.558-4.377c0.715-0.218,1.399-0.504,2.049-0.851l4.193,1.993c0.909-0.725,1.733-1.549,2.458-2.458l-1.993-4.193c0.347-0.647,0.633-1.334,0.851-2.049L31.229,17.736zM16,20.871c-2.69,0-4.872-2.182-4.872-4.871c0-2.69,2.182-4.872,4.872-4.872c2.689,0,4.871,2.182,4.871,4.872C20.871,18.689,18.689,20.871,16,20.871z"></path><title>Link options.</title></g></g></g></g><g   id="j_171" ><path  stroke="#707070" d="M 2891 1099 L 2891 1399" id="v-2369" stroke-width="2" stroke-dasharray="30 30" fill="none" style="opacity: 1;"></path><path  fill="black" stroke="black" d="M 0 0 0 0" transform="matrix(6.123233995736766e-17,1,-1,6.123233995736766e-17,2891,1099)"></path><path  fill="#707070" stroke="#707070" d="M 20 0 L 0 10 L 20 20 z" id="v-2371" transform="matrix(-1.8369701987210297e-16,-1,1,-1.8369701987210297e-16,2881,1399)" style="opacity: 1;"></path><path  d="M 2891 1099 L 2891 1399" id="v-2370" fill="none" style="cursor: auto; pointer-events: visiblepainted;"></path><g ><g id="v-2363"  label-idx="0" cursor="move" transform="matrix(1,0,0,1,2891,1249)" style="cursor: default; opacity: 1;"><rect joint-selector="rect" id="v-2366" fill="#ffffff" rx="3" ry="3" pointer-events="none" width="93.30517578125" height="33.94399070739746" transform="matrix(1,0,0,1,-46.7,-17)"></rect><text joint-selector="text" id="v-2365" font-size="24px" xml:space="preserve" y="0.8em" fill="#707070" text-anchor="middle" pointer-events="none" font-family="Open Sans" font-weight="normal" transform="matrix(1,0,0,1,0,-10.1)"><tspan dy="0" >Includes</tspan></text></g><g id="v-2364"  label-idx="1" cursor="move" transform="matrix(1,0,0,1,2881,1276)" style="cursor: default; opacity: 1;"><rect joint-selector="rect" id="v-2368" fill="#ffffff" rx="3" ry="3"  width="0" height="0" transform="matrix(1,0,0,1,0,0)" display="none"></rect><text joint-selector="text" id="v-2367" fill="#000000" font-size="14" text-anchor="middle" pointer-events="none"></text></g></g><g  display="none" style="display: none;"></g><g  id="v-2373" display="none"><g  id="v-2361"><path  end="source" d="M 26 0 L 0 13 L 26 26 z"></path></g><g  id="v-2362"><path  end="target" d="M 26 0 L 0 13 L 26 26 z"></path></g></g><g  id="v-2372" display="none"><g  id="v-2360" transform="translate(2891, 1139) "><g  event="remove"><circle r="11"></circle><path transform="scale(.8) translate(-16, -16)" d="M24.778,21.419 19.276,15.917 24.777,10.415 21.949,7.585 16.447,13.087 10.945,7.585 8.117,10.415 13.618,15.917 8.116,21.419 10.946,24.248 16.447,18.746 21.948,24.248z"></path><title>Remove link.</title></g><g  event="link:options"><circle r="11" transform="translate(25)"></circle><path fill="white" transform="scale(.55) translate(29, -16)" d="M31.229,17.736c0.064-0.571,0.104-1.148,0.104-1.736s-0.04-1.166-0.104-1.737l-4.377-1.557c-0.218-0.716-0.504-1.401-0.851-2.05l1.993-4.192c-0.725-0.91-1.549-1.734-2.458-2.459l-4.193,1.994c-0.647-0.347-1.334-0.632-2.049-0.849l-1.558-4.378C17.165,0.708,16.588,0.667,16,0.667s-1.166,0.041-1.737,0.105L12.707,5.15c-0.716,0.217-1.401,0.502-2.05,0.849L6.464,4.005C5.554,4.73,4.73,5.554,4.005,6.464l1.994,4.192c-0.347,0.648-0.632,1.334-0.849,2.05l-4.378,1.557C0.708,14.834,0.667,15.412,0.667,16s0.041,1.165,0.105,1.736l4.378,1.558c0.217,0.715,0.502,1.401,0.849,2.049l-1.994,4.193c0.725,0.909,1.549,1.733,2.459,2.458l4.192-1.993c0.648,0.347,1.334,0.633,2.05,0.851l1.557,4.377c0.571,0.064,1.148,0.104,1.737,0.104c0.588,0,1.165-0.04,1.736-0.104l1.558-4.377c0.715-0.218,1.399-0.504,2.049-0.851l4.193,1.993c0.909-0.725,1.733-1.549,2.458-2.458l-1.993-4.193c0.347-0.647,0.633-1.334,0.851-2.049L31.229,17.736zM16,20.871c-2.69,0-4.872-2.182-4.872-4.871c0-2.69,2.182-4.872,4.872-4.872c2.689,0,4.871,2.182,4.871,4.872C20.871,18.689,18.689,20.871,16,20.871z"></path><title>Link options.</title></g></g></g></g><g   id="j_172" ><path  stroke="#707070" d="M 2766 1099 L 2522 1391 C 2518 1396.3333333333333 2515 1402 2513 1408 L 2299 1999" id="v-2387" stroke-width="2" stroke-dasharray="30 30" fill="none" style="opacity: 1;"></path><path  fill="black" stroke="black" d="M 0 0 0 0" transform="matrix(-0.6401844186703123,0.7682212637591818,-0.7682212637591818,-0.6401844186703123,2766,1099)"></path><path  fill="#707070" stroke="#707070" d="M 20 0 L 0 10 L 20 20 z" id="v-2389" transform="matrix(0.3398294829780451,-0.9404870666303043,0.9404870666303043,0.3398294829780451,2289.7952231757913,1995.6016686099601)" style="opacity: 1;"></path><path  d="M 2766 1099 L 2522 1391 C 2518 1396.3333333333333 2515 1402 2513 1408 L 2299 1999" id="v-2388" fill="none" style="cursor: auto; pointer-events: visiblepainted;"></path><g ><g id="v-2381"  label-idx="0" cursor="move" transform="matrix(1,0,0,1,2474.06591796875,1515.5238037109375)" style="cursor: default; opacity: 1;"><rect joint-selector="rect" id="v-2384" fill="#ffffff" rx="3" ry="3" pointer-events="none" width="148.79054260253906" height="62.74398994445801" transform="matrix(1,0,0,1,-74.4,-31.4)"></rect><text joint-selector="text" id="v-2383" font-size="24px" xml:space="preserve" y="0.8em" fill="#707070" text-anchor="middle" pointer-events="none" font-family="Open Sans" font-weight="normal" transform="matrix(1,0,0,1,0,-24.5)"><tspan dy="0" >Reads the</tspan><tspan dy="1.2em" x="0" >payments list</tspan></text></g><g id="v-2382"  label-idx="1" cursor="move" transform="matrix(1,0,0,1,2464.06591796875,1557.5238037109375)" style="cursor: default; opacity: 1;"><rect joint-selector="rect" id="v-2386" fill="#ffffff" rx="3" ry="3"  width="0" height="0" transform="matrix(1,0,0,1,0,0)" display="none"></rect><text joint-selector="text" id="v-2385" fill="#000000" font-size="14" text-anchor="middle" pointer-events="none"></text></g></g><g  display="none" style="display: none;"><g  transform="translate(2516, 1399)" id="v-2378"><circle  idx="0" r="10"></circle><path  idx="0" d="M16,5.333c-7.732,0-14,4.701-14,10.5c0,1.982,0.741,3.833,2.016,5.414L2,25.667l5.613-1.441c2.339,1.317,5.237,2.107,8.387,2.107c7.732,0,14-4.701,14-10.5C30,10.034,23.732,5.333,16,5.333z" transform="translate(5, -33)"></path><path  idx="0" transform="scale(.8) translate(9.5, -37)" d="M24.778,21.419 19.276,15.917 24.777,10.415 21.949,7.585 16.447,13.087 10.945,7.585 8.117,10.415 13.618,15.917 8.116,21.419 10.946,24.248 16.447,18.746 21.948,24.248z"><title>Remove vertex.</title></path></g></g><g  id="v-2391" display="none"><g  id="v-2379"><path  end="source" d="M 26 0 L 0 13 L 26 26 z"></path></g><g  id="v-2380"><path  end="target" d="M 26 0 L 0 13 L 26 26 z"></path></g></g><g  id="v-2390" display="none"><g  id="v-2377" transform="translate(2740.3512894360915, 1129.694358543694) "><g  event="remove"><circle r="11"></circle><path transform="scale(.8) translate(-16, -16)" d="M24.778,21.419 19.276,15.917 24.777,10.415 21.949,7.585 16.447,13.087 10.945,7.585 8.117,10.415 13.618,15.917 8.116,21.419 10.946,24.248 16.447,18.746 21.948,24.248z"></path><title>Remove link.</title></g><g  event="link:options"><circle r="11" transform="translate(25)"></circle><path fill="white" transform="scale(.55) translate(29, -16)" d="M31.229,17.736c0.064-0.571,0.104-1.148,0.104-1.736s-0.04-1.166-0.104-1.737l-4.377-1.557c-0.218-0.716-0.504-1.401-0.851-2.05l1.993-4.192c-0.725-0.91-1.549-1.734-2.458-2.459l-4.193,1.994c-0.647-0.347-1.334-0.632-2.049-0.849l-1.558-4.378C17.165,0.708,16.588,0.667,16,0.667s-1.166,0.041-1.737,0.105L12.707,5.15c-0.716,0.217-1.401,0.502-2.05,0.849L6.464,4.005C5.554,4.73,4.73,5.554,4.005,6.464l1.994,4.192c-0.347,0.648-0.632,1.334-0.849,2.05l-4.378,1.557C0.708,14.834,0.667,15.412,0.667,16s0.041,1.165,0.105,1.736l4.378,1.558c0.217,0.715,0.502,1.401,0.849,2.049l-1.994,4.193c0.725,0.909,1.549,1.733,2.459,2.458l4.192-1.993c0.648,0.347,1.334,0.633,2.05,0.851l1.557,4.377c0.571,0.064,1.148,0.104,1.737,0.104c0.588,0,1.165-0.04,1.736-0.104l1.558-4.377c0.715-0.218,1.399-0.504,2.049-0.851l4.193,1.993c0.909-0.725,1.733-1.549,2.458-2.458l-1.993-4.193c0.347-0.647,0.633-1.334,0.851-2.049L31.229,17.736zM16,20.871c-2.69,0-4.872-2.182-4.872-4.871c0-2.69,2.182-4.872,4.872-4.872c2.689,0,4.871,2.182,4.871,4.872C20.871,18.689,18.689,20.871,16,20.871z"></path><title>Link options.</title></g></g></g></g><g   id="j_173" ><path  stroke="#707070" d="M 3552 1699 L 3142 2394 C 3138.666666666666 2400 3135.333333333333 2406 3132 2412 L 3016 2599" id="v-2405" stroke-width="2" stroke-dasharray="30 30" fill="none" style="opacity: 1;"></path><path  fill="black" stroke="black" d="M 0 0 0 0" transform="matrix(-0.5082577903868332,0.8612049805424339,-0.8612049805424339,-0.5082577903868332,3552.47998046875,1699)"></path><path  fill="#707070" stroke="#707070" d="M 20 0 L 0 10 L 20 20 z" id="v-2407" transform="matrix(0.5242382071108364,-0.8515716659243753,0.8515716659243753,0.5242382071108364,3007.8241766602728,2593.757709588135)" style="opacity: 1;"></path><path  d="M 3552 1699 L 3142 2394 C 3138.666666666666 2400 3135.333333333333 2406 3132 2412 L 3016 2599" id="v-2406" fill="none" style="cursor: auto; pointer-events: visiblepainted;"></path><g ><g id="v-2399"  label-idx="0" cursor="move" transform="matrix(1,0,0,1,3285.863037109375,2150.134765625)" style="cursor: default; opacity: 1;"><rect joint-selector="rect" id="v-2402" fill="#ffffff" rx="3" ry="3" pointer-events="none" width="170.2095184326172" height="120.34399032592773" transform="matrix(1,0,0,1,-85.1,-60.2)"></rect><text joint-selector="text" id="v-2401" font-size="24px" xml:space="preserve" y="0.8em" fill="#707070" text-anchor="middle" pointer-events="none" font-family="Open Sans" font-weight="normal" transform="matrix(1,0,0,1,0,-53.3)"><tspan dy="0" >Reads/Updates</tspan><tspan dy="1.2em" x="0" >the transaction</tspan><tspan dy="1.2em" x="0" >splitting</tspan><tspan dy="1.2em" x="0" >information</tspan></text></g><g id="v-2400"  label-idx="1" cursor="move" transform="matrix(1,0,0,1,3275.863037109375,2222.134765625)" style="cursor: default; opacity: 1;"><rect joint-selector="rect" id="v-2404" fill="#ffffff" rx="3" ry="3"  width="0" height="0" transform="matrix(1,0,0,1,0,0)" display="none"></rect><text joint-selector="text" id="v-2403" fill="#000000" font-size="14" text-anchor="middle" pointer-events="none"></text></g></g><g  display="none" style="display: none;"><g  transform="translate(3137, 2403)" id="v-2396"><circle  idx="0" r="10"></circle><path  idx="0" d="M16,5.333c-7.732,0-14,4.701-14,10.5c0,1.982,0.741,3.833,2.016,5.414L2,25.667l5.613-1.441c2.339,1.317,5.237,2.107,8.387,2.107c7.732,0,14-4.701,14-10.5C30,10.034,23.732,5.333,16,5.333z" transform="translate(5, -33)"></path><path  idx="0" transform="scale(.8) translate(9.5, -37)" d="M24.778,21.419 19.276,15.917 24.777,10.415 21.949,7.585 16.447,13.087 10.945,7.585 8.117,10.415 13.618,15.917 8.116,21.419 10.946,24.248 16.447,18.746 21.948,24.248z"><title>Remove vertex.</title></path></g></g><g  id="v-2409" display="none"><g  id="v-2397"><path  end="source" d="M 26 0 L 0 13 L 26 26 z"></path></g><g  id="v-2398"><path  end="target" d="M 26 0 L 0 13 L 26 26 z"></path></g></g><g  id="v-2408" display="none"><g  id="v-2395" transform="translate(3531.6758841009, 1733.4518549996942) "><g  event="remove"><circle r="11"></circle><path transform="scale(.8) translate(-16, -16)" d="M24.778,21.419 19.276,15.917 24.777,10.415 21.949,7.585 16.447,13.087 10.945,7.585 8.117,10.415 13.618,15.917 8.116,21.419 10.946,24.248 16.447,18.746 21.948,24.248z"></path><title>Remove link.</title></g><g  event="link:options"><circle r="11" transform="translate(25)"></circle><path fill="white" transform="scale(.55) translate(29, -16)" d="M31.229,17.736c0.064-0.571,0.104-1.148,0.104-1.736s-0.04-1.166-0.104-1.737l-4.377-1.557c-0.218-0.716-0.504-1.401-0.851-2.05l1.993-4.192c-0.725-0.91-1.549-1.734-2.458-2.459l-4.193,1.994c-0.647-0.347-1.334-0.632-2.049-0.849l-1.558-4.378C17.165,0.708,16.588,0.667,16,0.667s-1.166,0.041-1.737,0.105L12.707,5.15c-0.716,0.217-1.401,0.502-2.05,0.849L6.464,4.005C5.554,4.73,4.73,5.554,4.005,6.464l1.994,4.192c-0.347,0.648-0.632,1.334-0.849,2.05l-4.378,1.557C0.708,14.834,0.667,15.412,0.667,16s0.041,1.165,0.105,1.736l4.378,1.558c0.217,0.715,0.502,1.401,0.849,2.049l-1.994,4.193c0.725,0.909,1.549,1.733,2.459,2.458l4.192-1.993c0.648,0.347,1.334,0.633,2.05,0.851l1.557,4.377c0.571,0.064,1.148,0.104,1.737,0.104c0.588,0,1.165-0.04,1.736-0.104l1.558-4.377c0.715-0.218,1.399-0.504,2.049-0.851l4.193,1.993c0.909-0.725,1.733-1.549,2.458-2.458l-1.993-4.193c0.347-0.647,0.633-1.334,0.851-2.049L31.229,17.736zM16,20.871c-2.69,0-4.872-2.182-4.872-4.871c0-2.69,2.182-4.872,4.872-4.872c2.689,0,4.871,2.182,4.871,4.872C20.871,18.689,18.689,20.871,16,20.871z"></path><title>Link options.</title></g></g></g></g><g   id="j_174" ><path  stroke="#707070" d="M 1936 1699 L 2142 1999" id="v-2422" stroke-width="2" stroke-dasharray="30 30" fill="none" style="opacity: 1;"></path><path  fill="black" stroke="black" d="M 0 0 0 0" transform="matrix(0.5660622654627466,0.8243624879985643,-0.8243624879985643,0.5660622654627466,1936,1699)"></path><path  fill="#707070" stroke="#707070" d="M 20 0 L 0 10 L 20 20 z" id="v-2424" transform="matrix(-0.5660622654627464,-0.8243624879985644,0.8243624879985644,-0.5660622654627464,2133.756353243392,2004.6605951908632)" style="opacity: 1;"></path><path  d="M 1936 1699 L 2142 1999" id="v-2423" fill="none" style="cursor: auto; pointer-events: visiblepainted;"></path><g ><g id="v-2416"  label-idx="0" cursor="move" transform="matrix(1,0,0,1,2039,1849)" style="cursor: default; opacity: 1;"><rect joint-selector="rect" id="v-2419" fill="#ffffff" rx="3" ry="3" pointer-events="none" width="160.62197875976562" height="62.74398994445801" transform="matrix(1,0,0,1,-80.3,-31.4)"></rect><text joint-selector="text" id="v-2418" font-size="24px" xml:space="preserve" y="0.8em" fill="#707070" text-anchor="middle" pointer-events="none" font-family="Open Sans" font-weight="normal" transform="matrix(1,0,0,1,0,-24.5)"><tspan dy="0" >Triggers cache</tspan><tspan dy="1.2em" x="0" >refresh</tspan></text></g><g id="v-2417"  label-idx="1" cursor="move" transform="matrix(1,0,0,1,2029,1891)" style="cursor: default; opacity: 1;"><rect joint-selector="rect" id="v-2421" fill="#ffffff" rx="3" ry="3"  width="0" height="0" transform="matrix(1,0,0,1,0,0)" display="none"></rect><text joint-selector="text" id="v-2420" fill="#000000" font-size="14" text-anchor="middle" pointer-events="none"></text></g></g><g  display="none" style="display: none;"></g><g  id="v-2426" display="none"><g  id="v-2414"><path  end="source" d="M 26 0 L 0 13 L 26 26 z"></path></g><g  id="v-2415"><path  end="target" d="M 26 0 L 0 13 L 26 26 z"></path></g></g><g  id="v-2425" display="none"><g  id="v-2413" transform="translate(1958.6424899741728, 1731.9744999623877) "><g  event="remove"><circle r="11"></circle><path transform="scale(.8) translate(-16, -16)" d="M24.778,21.419 19.276,15.917 24.777,10.415 21.949,7.585 16.447,13.087 10.945,7.585 8.117,10.415 13.618,15.917 8.116,21.419 10.946,24.248 16.447,18.746 21.948,24.248z"></path><title>Remove link.</title></g><g  event="link:options"><circle r="11" transform="translate(25)"></circle><path fill="white" transform="scale(.55) translate(29, -16)" d="M31.229,17.736c0.064-0.571,0.104-1.148,0.104-1.736s-0.04-1.166-0.104-1.737l-4.377-1.557c-0.218-0.716-0.504-1.401-0.851-2.05l1.993-4.192c-0.725-0.91-1.549-1.734-2.458-2.459l-4.193,1.994c-0.647-0.347-1.334-0.632-2.049-0.849l-1.558-4.378C17.165,0.708,16.588,0.667,16,0.667s-1.166,0.041-1.737,0.105L12.707,5.15c-0.716,0.217-1.401,0.502-2.05,0.849L6.464,4.005C5.554,4.73,4.73,5.554,4.005,6.464l1.994,4.192c-0.347,0.648-0.632,1.334-0.849,2.05l-4.378,1.557C0.708,14.834,0.667,15.412,0.667,16s0.041,1.165,0.105,1.736l4.378,1.558c0.217,0.715,0.502,1.401,0.849,2.049l-1.994,4.193c0.725,0.909,1.549,1.733,2.459,2.458l4.192-1.993c0.648,0.347,1.334,0.633,2.05,0.851l1.557,4.377c0.571,0.064,1.148,0.104,1.737,0.104c0.588,0,1.165-0.04,1.736-0.104l1.558-4.377c0.715-0.218,1.399-0.504,2.049-0.851l4.193,1.993c0.909-0.725,1.733-1.549,2.458-2.458l-1.993-4.193c0.347-0.647,0.633-1.334,0.851-2.049L31.229,17.736zM16,20.871c-2.69,0-4.872-2.182-4.872-4.871c0-2.69,2.182-4.872,4.872-4.872c2.689,0,4.871,2.182,4.871,4.872C20.871,18.689,18.689,20.871,16,20.871z"></path><title>Link options.</title></g></g></g></g><g   id="j_175" ><path  stroke="#707070" d="M 2730 1699 L 2407 1999" id="v-2439" stroke-width="2" stroke-dasharray="30 30" fill="none" style="opacity: 1;"></path><path  fill="black" stroke="black" d="M 0 0 0 0" transform="matrix(-0.7327126330915423,0.680538167414627,-0.680538167414627,-0.7327126330915423,2729.5,1699)"></path><path  fill="#707070" stroke="#707070" d="M 20 0 L 0 10 L 20 20 z" id="v-2441" transform="matrix(0.7327126330915426,-0.6805381674146267,0.6805381674146267,0.7327126330915426,2399.6946404324385,1991.6728354213558)" style="opacity: 1;"></path><path  d="M 2730 1699 L 2407 1999" id="v-2440" fill="none" style="cursor: auto; pointer-events: visiblepainted;"></path><g ><g id="v-2433"  label-idx="0" cursor="move" transform="matrix(1,0,0,1,2568.5,1849)" style="cursor: default; opacity: 1;"><rect joint-selector="rect" id="v-2436" fill="#ffffff" rx="3" ry="3" pointer-events="none" width="160.62197875976562" height="62.74398994445801" transform="matrix(1,0,0,1,-80.3,-31.4)"></rect><text joint-selector="text" id="v-2435" font-size="24px" xml:space="preserve" y="0.8em" fill="#707070" text-anchor="middle" pointer-events="none" font-family="Open Sans" font-weight="normal" transform="matrix(1,0,0,1,0,-24.5)"><tspan dy="0" >Triggers cache</tspan><tspan dy="1.2em" x="0" >refresh</tspan></text></g><g id="v-2434"  label-idx="1" cursor="move" transform="matrix(1,0,0,1,2558.5,1891)" style="cursor: default; opacity: 1;"><rect joint-selector="rect" id="v-2438" fill="#ffffff" rx="3" ry="3"  width="0" height="0" transform="matrix(1,0,0,1,0,0)" display="none"></rect><text joint-selector="text" id="v-2437" fill="#000000" font-size="14" text-anchor="middle" pointer-events="none"></text></g></g><g  display="none" style="display: none;"></g><g  id="v-2443" display="none"><g  id="v-2431"><path  end="source" d="M 26 0 L 0 13 L 26 26 z"></path></g><g  id="v-2432"><path  end="target" d="M 26 0 L 0 13 L 26 26 z"></path></g></g><g  id="v-2442" display="none"><g  id="v-2430" transform="translate(2700.6914923206964, 1726.221524160344) "><g  event="remove"><circle r="11"></circle><path transform="scale(.8) translate(-16, -16)" d="M24.778,21.419 19.276,15.917 24.777,10.415 21.949,7.585 16.447,13.087 10.945,7.585 8.117,10.415 13.618,15.917 8.116,21.419 10.946,24.248 16.447,18.746 21.948,24.248z"></path><title>Remove link.</title></g><g  event="link:options"><circle r="11" transform="translate(25)"></circle><path fill="white" transform="scale(.55) translate(29, -16)" d="M31.229,17.736c0.064-0.571,0.104-1.148,0.104-1.736s-0.04-1.166-0.104-1.737l-4.377-1.557c-0.218-0.716-0.504-1.401-0.851-2.05l1.993-4.192c-0.725-0.91-1.549-1.734-2.458-2.459l-4.193,1.994c-0.647-0.347-1.334-0.632-2.049-0.849l-1.558-4.378C17.165,0.708,16.588,0.667,16,0.667s-1.166,0.041-1.737,0.105L12.707,5.15c-0.716,0.217-1.401,0.502-2.05,0.849L6.464,4.005C5.554,4.73,4.73,5.554,4.005,6.464l1.994,4.192c-0.347,0.648-0.632,1.334-0.849,2.05l-4.378,1.557C0.708,14.834,0.667,15.412,0.667,16s0.041,1.165,0.105,1.736l4.378,1.558c0.217,0.715,0.502,1.401,0.849,2.049l-1.994,4.193c0.725,0.909,1.549,1.733,2.459,2.458l4.192-1.993c0.648,0.347,1.334,0.633,2.05,0.851l1.557,4.377c0.571,0.064,1.148,0.104,1.737,0.104c0.588,0,1.165-0.04,1.736-0.104l1.558-4.377c0.715-0.218,1.399-0.504,2.049-0.851l4.193,1.993c0.909-0.725,1.733-1.549,2.458-2.458l-1.993-4.193c0.347-0.647,0.633-1.334,0.851-2.049L31.229,17.736zM16,20.871c-2.69,0-4.872-2.182-4.872-4.871c0-2.69,2.182-4.872,4.872-4.872c2.689,0,4.871,2.182,4.871,4.872C20.871,18.689,18.689,20.871,16,20.871z"></path><title>Link options.</title></g></g></g></g><g   id="j_176" ><path  stroke="#707070" d="M 2895 1699 L 2920 2599" id="v-2453" stroke-width="2" stroke-dasharray="30 30" fill="none" style="opacity: 1;"></path><path  fill="black" stroke="black" d="M 0 0 0 0" transform="matrix(0.02748954698272775,0.9996220909957344,-0.9996220909957344,0.02748954698272775,2895.1298828125,1699)"></path><path  fill="#707070" stroke="#707070" d="M 20 0 L 0 10 L 20 20 z" id="v-2455" transform="matrix(-0.027489413874994897,-0.9996220946561801,0.9996220946561801,-0.027489413874994897,2909.8838978015633,2599.274777194687)" style="opacity: 1;"></path><path  d="M 2895 1699 L 2920 2599" id="v-2454" fill="none" style="cursor: auto; pointer-events: visiblepainted;"></path><g ><g id="v-2447"  label-idx="0" cursor="move" transform="matrix(1,0,0,1,2907.5,2149)" style="cursor: default; opacity: 1;"><rect joint-selector="rect" id="v-2450" fill="#ffffff" rx="3" ry="3" pointer-events="none" width="120.8846664428711" height="33.94399070739746" transform="matrix(1,0,0,1,-60.4,-17)"></rect><text joint-selector="text" id="v-2449" font-size="24px" xml:space="preserve" y="0.8em" fill="#707070" text-anchor="middle" pointer-events="none" font-family="Open Sans" font-weight="normal" transform="matrix(1,0,0,1,0,-10.1)"><tspan dy="0" >Configures</tspan></text></g><g id="v-2448"  label-idx="1" cursor="move" transform="matrix(1,0,0,1,2897.5,2176)" style="cursor: default; opacity: 1;"><rect joint-selector="rect" id="v-2452" fill="#ffffff" rx="3" ry="3"  width="0" height="0" transform="matrix(1,0,0,1,0,0)" display="none"></rect><text joint-selector="text" id="v-2451" fill="#000000" font-size="14" text-anchor="middle" pointer-events="none"></text></g></g><g  display="none" style="display: none;"></g><g  id="v-2457" display="none"><g  id="v-2445"><path  end="source" d="M 26 0 L 0 13 L 26 26 z"></path></g><g  id="v-2446"><path  end="target" d="M 26 0 L 0 13 L 26 26 z"></path></g></g><g  id="v-2456" display="none"><g  id="v-2444" transform="translate(2896.1106826896144, 1738.9845768261087) "><g  event="remove"><circle r="11"></circle><path transform="scale(.8) translate(-16, -16)" d="M24.778,21.419 19.276,15.917 24.777,10.415 21.949,7.585 16.447,13.087 10.945,7.585 8.117,10.415 13.618,15.917 8.116,21.419 10.946,24.248 16.447,18.746 21.948,24.248z"></path><title>Remove link.</title></g><g  event="link:options"><circle r="11" transform="translate(25)"></circle><path fill="white" transform="scale(.55) translate(29, -16)" d="M31.229,17.736c0.064-0.571,0.104-1.148,0.104-1.736s-0.04-1.166-0.104-1.737l-4.377-1.557c-0.218-0.716-0.504-1.401-0.851-2.05l1.993-4.192c-0.725-0.91-1.549-1.734-2.458-2.459l-4.193,1.994c-0.647-0.347-1.334-0.632-2.049-0.849l-1.558-4.378C17.165,0.708,16.588,0.667,16,0.667s-1.166,0.041-1.737,0.105L12.707,5.15c-0.716,0.217-1.401,0.502-2.05,0.849L6.464,4.005C5.554,4.73,4.73,5.554,4.005,6.464l1.994,4.192c-0.347,0.648-0.632,1.334-0.849,2.05l-4.378,1.557C0.708,14.834,0.667,15.412,0.667,16s0.041,1.165,0.105,1.736l4.378,1.558c0.217,0.715,0.502,1.401,0.849,2.049l-1.994,4.193c0.725,0.909,1.549,1.733,2.459,2.458l4.192-1.993c0.648,0.347,1.334,0.633,2.05,0.851l1.557,4.377c0.571,0.064,1.148,0.104,1.737,0.104c0.588,0,1.165-0.04,1.736-0.104l1.558-4.377c0.715-0.218,1.399-0.504,2.049-0.851l4.193,1.993c0.909-0.725,1.733-1.549,2.458-2.458l-1.993-4.193c0.347-0.647,0.633-1.334,0.851-2.049L31.229,17.736zM16,20.871c-2.69,0-4.872-2.182-4.872-4.871c0-2.69,2.182-4.872,4.872-4.872c2.689,0,4.871,2.182,4.871,4.872C20.871,18.689,18.689,20.871,16,20.871z"></path><title>Link options.</title></g></g></g></g><g   id="j_177" ><path  stroke="#707070" d="M 1308 1665 L 2020 2033" id="v-2470" stroke-width="2" stroke-dasharray="30 30" fill="none" style="opacity: 1;"></path><path  fill="black" stroke="black" d="M 0 0 0 0" transform="matrix(0.8885412366341594,0.45879676415667836,-0.45879676415667836,0.8885412366341594,1308,1665.1800537109375)"></path><path  fill="#707070" stroke="#707070" d="M 20 0 L 0 10 L 20 20 z" id="v-2472" transform="matrix(-0.8885412213610379,-0.4587967937357836,0.4587967937357836,-0.8885412213610379,2015.41206829969,2041.7054358150308)" style="opacity: 1;"></path><path  d="M 1308 1665 L 2020 2033" id="v-2471" fill="none" style="cursor: auto; pointer-events: visiblepainted;"></path><g ><g id="v-2464"  label-idx="0" cursor="move" transform="matrix(1,0,0,1,1664,1849)" style="cursor: default; opacity: 1;"><rect joint-selector="rect" id="v-2467" fill="#ffffff" rx="3" ry="3" pointer-events="none" width="149.19851684570312" height="62.74398994445801" transform="matrix(1,0,0,1,-74.6,-31.4)"></rect><text joint-selector="text" id="v-2466" font-size="24px" xml:space="preserve" y="0.8em" fill="#707070" text-anchor="middle" pointer-events="none" font-family="Open Sans" font-weight="normal" transform="matrix(1,0,0,1,0,-24.5)"><tspan dy="0" >Trigger cache</tspan><tspan dy="1.2em" x="0" >refresh</tspan></text></g><g id="v-2465"  label-idx="1" cursor="move" transform="matrix(1,0,0,1,1654,1891)" style="cursor: default; opacity: 1;"><rect joint-selector="rect" id="v-2469" fill="#ffffff" rx="3" ry="3"  width="0" height="0" transform="matrix(1,0,0,1,0,0)" display="none"></rect><text joint-selector="text" id="v-2468" fill="#000000" font-size="14" text-anchor="middle" pointer-events="none"></text></g></g><g  display="none" style="display: none;"></g><g  id="v-2474" display="none"><g  id="v-2462"><path  end="source" d="M 26 0 L 0 13 L 26 26 z"></path></g><g  id="v-2463"><path  end="target" d="M 26 0 L 0 13 L 26 26 z"></path></g></g><g  id="v-2473" display="none"><g  id="v-2461" transform="translate(1343.5343221998037, 1683.366054170685) "><g  event="remove"><circle r="11"></circle><path transform="scale(.8) translate(-16, -16)" d="M24.778,21.419 19.276,15.917 24.777,10.415 21.949,7.585 16.447,13.087 10.945,7.585 8.117,10.415 13.618,15.917 8.116,21.419 10.946,24.248 16.447,18.746 21.948,24.248z"></path><title>Remove link.</title></g><g  event="link:options"><circle r="11" transform="translate(25)"></circle><path fill="white" transform="scale(.55) translate(29, -16)" d="M31.229,17.736c0.064-0.571,0.104-1.148,0.104-1.736s-0.04-1.166-0.104-1.737l-4.377-1.557c-0.218-0.716-0.504-1.401-0.851-2.05l1.993-4.192c-0.725-0.91-1.549-1.734-2.458-2.459l-4.193,1.994c-0.647-0.347-1.334-0.632-2.049-0.849l-1.558-4.378C17.165,0.708,16.588,0.667,16,0.667s-1.166,0.041-1.737,0.105L12.707,5.15c-0.716,0.217-1.401,0.502-2.05,0.849L6.464,4.005C5.554,4.73,4.73,5.554,4.005,6.464l1.994,4.192c-0.347,0.648-0.632,1.334-0.849,2.05l-4.378,1.557C0.708,14.834,0.667,15.412,0.667,16s0.041,1.165,0.105,1.736l4.378,1.558c0.217,0.715,0.502,1.401,0.849,2.049l-1.994,4.193c0.725,0.909,1.549,1.733,2.459,2.458l4.192-1.993c0.648,0.347,1.334,0.633,2.05,0.851l1.557,4.377c0.571,0.064,1.148,0.104,1.737,0.104c0.588,0,1.165-0.04,1.736-0.104l1.558-4.377c0.715-0.218,1.399-0.504,2.049-0.851l4.193,1.993c0.909-0.725,1.733-1.549,2.458-2.458l-1.993-4.193c0.347-0.647,0.633-1.334,0.851-2.049L31.229,17.736zM16,20.871c-2.69,0-4.872-2.182-4.872-4.871c0-2.69,2.182-4.872,4.872-4.872c2.689,0,4.871,2.182,4.871,4.872C20.871,18.689,18.689,20.871,16,20.871z"></path><title>Link options.</title></g></g></g></g><g   id="j_178" ><path  stroke="#707070" d="M 2415 2299 L 2754 2599" id="v-2487" stroke-width="2" stroke-dasharray="30 30" fill="none" style="opacity: 1;"></path><path  fill="black" stroke="black" d="M 0 0 0 0" transform="matrix(0.7493545755037196,0.6621689513799632,-0.6621689513799632,0.7493545755037196,2414.75,2299)"></path><path  fill="#707070" stroke="#707070" d="M 20 0 L 0 10 L 20 20 z" id="v-2489" transform="matrix(-0.7493545755037199,-0.662168951379963,0.662168951379963,-0.7493545755037199,2747.6282038974878,2606.493653237587)" style="opacity: 1;"></path><path  d="M 2415 2299 L 2754 2599" id="v-2488" fill="none" style="cursor: auto; pointer-events: visiblepainted;"></path><g ><g id="v-2481"  label-idx="0" cursor="move" transform="matrix(1,0,0,1,2584.5,2449)" style="cursor: default; opacity: 1;"><rect joint-selector="rect" id="v-2484" fill="#ffffff" rx="3" ry="3" pointer-events="none" width="166.5784912109375" height="62.74398994445801" transform="matrix(1,0,0,1,-83.3,-31.4)"></rect><text joint-selector="text" id="v-2483" font-size="24px" xml:space="preserve" y="0.8em" fill="#707070" text-anchor="middle" pointer-events="none" font-family="Open Sans" font-weight="normal" transform="matrix(1,0,0,1,0,-24.5)"><tspan dy="0" >Retrieves</tspan><tspan dy="1.2em" x="0" >payments data</tspan></text></g><g id="v-2482"  label-idx="1" cursor="move" transform="matrix(1,0,0,1,2574.5,2491)" style="cursor: default; opacity: 1;"><rect joint-selector="rect" id="v-2486" fill="#ffffff" rx="3" ry="3"  width="0" height="0" transform="matrix(1,0,0,1,0,0)" display="none"></rect><text joint-selector="text" id="v-2485" fill="#000000" font-size="14" text-anchor="middle" pointer-events="none"></text></g></g><g  display="none" style="display: none;"></g><g  id="v-2491" display="none"><g  id="v-2479"><path  end="source" d="M 26 0 L 0 13 L 26 26 z"></path></g><g  id="v-2480"><path  end="target" d="M 26 0 L 0 13 L 26 26 z"></path></g></g><g  id="v-2490" display="none"><g  id="v-2478" transform="translate(2444.9548022066288, 2325.5086745191406) "><g  event="remove"><circle r="11"></circle><path transform="scale(.8) translate(-16, -16)" d="M24.778,21.419 19.276,15.917 24.777,10.415 21.949,7.585 16.447,13.087 10.945,7.585 8.117,10.415 13.618,15.917 8.116,21.419 10.946,24.248 16.447,18.746 21.948,24.248z"></path><title>Remove link.</title></g><g  event="link:options"><circle r="11" transform="translate(25)"></circle><path fill="white" transform="scale(.55) translate(29, -16)" d="M31.229,17.736c0.064-0.571,0.104-1.148,0.104-1.736s-0.04-1.166-0.104-1.737l-4.377-1.557c-0.218-0.716-0.504-1.401-0.851-2.05l1.993-4.192c-0.725-0.91-1.549-1.734-2.458-2.459l-4.193,1.994c-0.647-0.347-1.334-0.632-2.049-0.849l-1.558-4.378C17.165,0.708,16.588,0.667,16,0.667s-1.166,0.041-1.737,0.105L12.707,5.15c-0.716,0.217-1.401,0.502-2.05,0.849L6.464,4.005C5.554,4.73,4.73,5.554,4.005,6.464l1.994,4.192c-0.347,0.648-0.632,1.334-0.849,2.05l-4.378,1.557C0.708,14.834,0.667,15.412,0.667,16s0.041,1.165,0.105,1.736l4.378,1.558c0.217,0.715,0.502,1.401,0.849,2.049l-1.994,4.193c0.725,0.909,1.549,1.733,2.459,2.458l4.192-1.993c0.648,0.347,1.334,0.633,2.05,0.851l1.557,4.377c0.571,0.064,1.148,0.104,1.737,0.104c0.588,0,1.165-0.04,1.736-0.104l1.558-4.377c0.715-0.218,1.399-0.504,2.049-0.851l4.193,1.993c0.909-0.725,1.733-1.549,2.458-2.458l-1.993-4.193c0.347-0.647,0.633-1.334,0.851-2.049L31.229,17.736zM16,20.871c-2.69,0-4.872-2.182-4.872-4.871c0-2.69,2.182-4.872,4.872-4.872c2.689,0,4.871,2.182,4.871,4.872C20.871,18.689,18.689,20.871,16,20.871z"></path><title>Link options.</title></g></g></g></g><g   id="j_179" ><path  stroke="#707070" d="M 3766 1099 L 4010 1391 C 4013.9999999999995 1396.3333333333333 4015.9999999999995 1402.3333333333333 4016 1409 L 4016 1689 C 4015.9999999999995 1695.6666666666665 4013.9999999999995 1701.6666666666665 4010 1707 L 3489 2395 C 3485 2400.333333333333 3480.333333333333 2404.6666666666665 3475 2408 L 3149 2610" id="v-2507" stroke-width="2" stroke-dasharray="30 30" fill="none" style="opacity: 1;"></path><path  fill="black" stroke="black" d="M 0 0 0 0" transform="matrix(0.6401844186703124,0.7682212637591818,-0.7682212637591818,0.6401844186703124,3766,1099)"></path><path  fill="#707070" stroke="#707070" d="M 20 0 L 0 10 L 20 20 z" id="v-2509" transform="matrix(0.8503014906374056,-0.5262959006298702,0.5262959006298702,0.8503014906374056,3143.736955774827,2601.2269851155497)" style="opacity: 1;"></path><path  d="M 3766 1099 L 4010 1391 C 4013.9999999999995 1396.3333333333333 4015.9999999999995 1402.3333333333333 4016 1409 L 4016 1689 C 4015.9999999999995 1695.6666666666665 4013.9999999999995 1701.6666666666665 4010 1707 L 3489 2395 C 3485 2400.333333333333 3480.333333333333 2404.6666666666665 3475 2408 L 3149 2610" id="v-2508" fill="none" style="cursor: auto; pointer-events: visiblepainted;"></path><g ><g id="v-2501"  label-idx="0" cursor="move" transform="matrix(1,0,0,1,3838.977783203125,1932.841064453125)" style="cursor: default; opacity: 1;"><rect joint-selector="rect" id="v-2504" fill="#ffffff" rx="3" ry="3" pointer-events="none" width="174.24853515625" height="62.74398994445801" transform="matrix(1,0,0,1,-87.1,-31.4)"></rect><text joint-selector="text" id="v-2503" font-size="24px" xml:space="preserve" y="0.8em" fill="#707070" text-anchor="middle" pointer-events="none" font-family="Open Sans" font-weight="normal" transform="matrix(1,0,0,1,0,-24.5)"><tspan dy="0" >Retrieves and</tspan><tspan dy="1.2em" x="0" >sets credentials</tspan></text></g><g id="v-2502"  label-idx="1" cursor="move" transform="matrix(1,0,0,1,3828.977783203125,1974.841064453125)" style="cursor: default; opacity: 1;"><rect joint-selector="rect" id="v-2506" fill="#ffffff" rx="3" ry="3"  width="0" height="0" transform="matrix(1,0,0,1,0,0)" display="none"></rect><text joint-selector="text" id="v-2505" fill="#000000" font-size="14" text-anchor="middle" pointer-events="none"></text></g></g><g  display="none" style="display: none;"><g  transform="translate(4016, 1399)" id="v-2496"><circle  idx="0" r="10"></circle><path  idx="0" d="M16,5.333c-7.732,0-14,4.701-14,10.5c0,1.982,0.741,3.833,2.016,5.414L2,25.667l5.613-1.441c2.339,1.317,5.237,2.107,8.387,2.107c7.732,0,14-4.701,14-10.5C30,10.034,23.732,5.333,16,5.333z" transform="translate(5, -33)"></path><path  idx="0" transform="scale(.8) translate(9.5, -37)" d="M24.778,21.419 19.276,15.917 24.777,10.415 21.949,7.585 16.447,13.087 10.945,7.585 8.117,10.415 13.618,15.917 8.116,21.419 10.946,24.248 16.447,18.746 21.948,24.248z"><title>Remove vertex.</title></path></g><g  transform="translate(4016, 1699)" id="v-2497"><circle  idx="1" r="10"></circle><path  idx="1" d="M16,5.333c-7.732,0-14,4.701-14,10.5c0,1.982,0.741,3.833,2.016,5.414L2,25.667l5.613-1.441c2.339,1.317,5.237,2.107,8.387,2.107c7.732,0,14-4.701,14-10.5C30,10.034,23.732,5.333,16,5.333z" transform="translate(5, -33)"></path><path  idx="1" transform="scale(.8) translate(9.5, -37)" d="M24.778,21.419 19.276,15.917 24.777,10.415 21.949,7.585 16.447,13.087 10.945,7.585 8.117,10.415 13.618,15.917 8.116,21.419 10.946,24.248 16.447,18.746 21.948,24.248z"><title>Remove vertex.</title></path></g><g  transform="translate(3483, 2403)" id="v-2498"><circle  idx="2" r="10"></circle><path  idx="2" d="M16,5.333c-7.732,0-14,4.701-14,10.5c0,1.982,0.741,3.833,2.016,5.414L2,25.667l5.613-1.441c2.339,1.317,5.237,2.107,8.387,2.107c7.732,0,14-4.701,14-10.5C30,10.034,23.732,5.333,16,5.333z" transform="translate(5, -33)"></path><path  idx="2" transform="scale(.8) translate(9.5, -37)" d="M24.778,21.419 19.276,15.917 24.777,10.415 21.949,7.585 16.447,13.087 10.945,7.585 8.117,10.415 13.618,15.917 8.116,21.419 10.946,24.248 16.447,18.746 21.948,24.248z"><title>Remove vertex.</title></path></g></g><g  id="v-2511" display="none"><g  id="v-2499"><path  end="source" d="M 26 0 L 0 13 L 26 26 z"></path></g><g  id="v-2500"><path  end="target" d="M 26 0 L 0 13 L 26 26 z"></path></g></g><g  id="v-2510" display="none"><g  id="v-2495" transform="translate(3791.6487105639085, 1129.694358543694) "><g  event="remove"><circle r="11"></circle><path transform="scale(.8) translate(-16, -16)" d="M24.778,21.419 19.276,15.917 24.777,10.415 21.949,7.585 16.447,13.087 10.945,7.585 8.117,10.415 13.618,15.917 8.116,21.419 10.946,24.248 16.447,18.746 21.948,24.248z"></path><title>Remove link.</title></g><g  event="link:options"><circle r="11" transform="translate(25)"></circle><path fill="white" transform="scale(.55) translate(29, -16)" d="M31.229,17.736c0.064-0.571,0.104-1.148,0.104-1.736s-0.04-1.166-0.104-1.737l-4.377-1.557c-0.218-0.716-0.504-1.401-0.851-2.05l1.993-4.192c-0.725-0.91-1.549-1.734-2.458-2.459l-4.193,1.994c-0.647-0.347-1.334-0.632-2.049-0.849l-1.558-4.378C17.165,0.708,16.588,0.667,16,0.667s-1.166,0.041-1.737,0.105L12.707,5.15c-0.716,0.217-1.401,0.502-2.05,0.849L6.464,4.005C5.554,4.73,4.73,5.554,4.005,6.464l1.994,4.192c-0.347,0.648-0.632,1.334-0.849,2.05l-4.378,1.557C0.708,14.834,0.667,15.412,0.667,16s0.041,1.165,0.105,1.736l4.378,1.558c0.217,0.715,0.502,1.401,0.849,2.049l-1.994,4.193c0.725,0.909,1.549,1.733,2.459,2.458l4.192-1.993c0.648,0.347,1.334,0.633,2.05,0.851l1.557,4.377c0.571,0.064,1.148,0.104,1.737,0.104c0.588,0,1.165-0.04,1.736-0.104l1.558-4.377c0.715-0.218,1.399-0.504,2.049-0.851l4.193,1.993c0.909-0.725,1.733-1.549,2.458-2.458l-1.993-4.193c0.347-0.647,0.633-1.334,0.851-2.049L31.229,17.736zM16,20.871c-2.69,0-4.872-2.182-4.872-4.871c0-2.69,2.182-4.872,4.872-4.872c2.689,0,4.871,2.182,4.871,4.872C20.871,18.689,18.689,20.871,16,20.871z"></path><title>Link options.</title></g></g></g></g><g   id="j_180" ><path  stroke="#707070" d="M 903 538 L 686 689 C 680.6666666666666 693 675.6666666666666 697.3333333333333 671 702 L 574 799" id="v-2525" stroke-width="2" stroke-dasharray="30 30" fill="none" style="opacity: 1;"></path><path  fill="black" stroke="black" d="M 0 0 0 0" transform="matrix(-0.8205832200017817,0.571527058897046,-0.571527058897046,-0.8205832200017817,903,538.2899780273438)"></path><path  fill="#707070" stroke="#707070" d="M 20 0 L 0 10 L 20 20 z" id="v-2527" transform="matrix(0.7071067811865474,-0.7071067811865477,0.7071067811865477,0.7071067811865474,566.928909298144,791.928955078125)" style="opacity: 1;"></path><path  d="M 903 538 L 686 689 C 680.6666666666666 693 675.6666666666666 697.3333333333333 671 702 L 574 799" id="v-2526" fill="none" style="cursor: auto; pointer-events: visiblepainted;"></path><g ><g id="v-2519"  label-idx="0" cursor="move" transform="matrix(1,0,0,1,730.0469970703125,658.3497924804688)" style="cursor: default; opacity: 1;"><rect joint-selector="rect" id="v-2522" fill="#ffffff" rx="3" ry="3" pointer-events="none" width="194.74301147460938" height="91.54399490356445" transform="matrix(1,0,0,1,-96.8,-45.8)"></rect><text joint-selector="text" id="v-2521" font-size="24px" xml:space="preserve" y="0.8em" fill="#707070" text-anchor="middle" pointer-events="none" font-family="Open Sans" font-weight="normal" transform="matrix(1,0,0,1,0,-38.9)"><tspan dy="0" >Requests table of</tspan><tspan dy="1.2em" x="0" >transactions in</tspan><tspan dy="1.2em" x="0" >the current cycle</tspan></text></g><g id="v-2520"  label-idx="1" cursor="move" transform="matrix(1,0,0,1,720.0469970703125,715.3497924804688)" style="cursor: default; opacity: 1;"><rect joint-selector="rect" id="v-2524" fill="#ffffff" rx="3" ry="3"  width="0" height="0" transform="matrix(1,0,0,1,0,0)" display="none"></rect><text joint-selector="text" id="v-2523" fill="#000000" font-size="14" text-anchor="middle" pointer-events="none"></text></g></g><g  display="none" style="display: none;"><g  transform="translate(678, 695)" id="v-2516"><circle  idx="0" r="10"></circle><path  idx="0" d="M16,5.333c-7.732,0-14,4.701-14,10.5c0,1.982,0.741,3.833,2.016,5.414L2,25.667l5.613-1.441c2.339,1.317,5.237,2.107,8.387,2.107c7.732,0,14-4.701,14-10.5C30,10.034,23.732,5.333,16,5.333z" transform="translate(5, -33)"></path><path  idx="0" transform="scale(.8) translate(9.5, -37)" d="M24.778,21.419 19.276,15.917 24.777,10.415 21.949,7.585 16.447,13.087 10.945,7.585 8.117,10.415 13.618,15.917 8.116,21.419 10.946,24.248 16.447,18.746 21.948,24.248z"><title>Remove vertex.</title></path></g></g><g  id="v-2529" display="none"><g  id="v-2517"><path  end="source" d="M 26 0 L 0 13 L 26 26 z"></path></g><g  id="v-2518"><path  end="target" d="M 26 0 L 0 13 L 26 26 z"></path></g></g><g  id="v-2528" display="none"><g  id="v-2515" transform="translate(870.1668761456569, 560.8470124516396) "><g  event="remove"><circle r="11"></circle><path transform="scale(.8) translate(-16, -16)" d="M24.778,21.419 19.276,15.917 24.777,10.415 21.949,7.585 16.447,13.087 10.945,7.585 8.117,10.415 13.618,15.917 8.116,21.419 10.946,24.248 16.447,18.746 21.948,24.248z"></path><title>Remove link.</title></g><g  event="link:options"><circle r="11" transform="translate(25)"></circle><path fill="white" transform="scale(.55) translate(29, -16)" d="M31.229,17.736c0.064-0.571,0.104-1.148,0.104-1.736s-0.04-1.166-0.104-1.737l-4.377-1.557c-0.218-0.716-0.504-1.401-0.851-2.05l1.993-4.192c-0.725-0.91-1.549-1.734-2.458-2.459l-4.193,1.994c-0.647-0.347-1.334-0.632-2.049-0.849l-1.558-4.378C17.165,0.708,16.588,0.667,16,0.667s-1.166,0.041-1.737,0.105L12.707,5.15c-0.716,0.217-1.401,0.502-2.05,0.849L6.464,4.005C5.554,4.73,4.73,5.554,4.005,6.464l1.994,4.192c-0.347,0.648-0.632,1.334-0.849,2.05l-4.378,1.557C0.708,14.834,0.667,15.412,0.667,16s0.041,1.165,0.105,1.736l4.378,1.558c0.217,0.715,0.502,1.401,0.849,2.049l-1.994,4.193c0.725,0.909,1.549,1.733,2.459,2.458l4.192-1.993c0.648,0.347,1.334,0.633,2.05,0.851l1.557,4.377c0.571,0.064,1.148,0.104,1.737,0.104c0.588,0,1.165-0.04,1.736-0.104l1.558-4.377c0.715-0.218,1.399-0.504,2.049-0.851l4.193,1.993c0.909-0.725,1.733-1.549,2.458-2.458l-1.993-4.193c0.347-0.647,0.633-1.334,0.851-2.049L31.229,17.736zM16,20.871c-2.69,0-4.872-2.182-4.872-4.871c0-2.69,2.182-4.872,4.872-4.872c2.689,0,4.871,2.182,4.871,4.872C20.871,18.689,18.689,20.871,16,20.871z"></path><title>Link options.</title></g></g></g></g><g   id="j_181" ><path  stroke="#707070" d="M 1230 599 L 1738 1399" id="v-2542" stroke-width="2" stroke-dasharray="30 30" fill="none" style="opacity: 1;"></path><path  fill="black" stroke="black" d="M 0 0 0 0" transform="matrix(0.5359205237876109,0.8442684360931734,-0.8442684360931734,0.5359205237876109,1229.9599609375,599)"></path><path  fill="#707070" stroke="#707070" d="M 20 0 L 0 10 L 20 20 z" id="v-2544" transform="matrix(-0.5359204675770385,-0.8442684717742387,0.8442684717742387,-0.5359204675770385,1729.3372963252154,1404.3592624403877)" style="opacity: 1;"></path><path  d="M 1230 599 L 1738 1399" id="v-2543" fill="none" style="cursor: auto; pointer-events: visiblepainted;"></path><g ><g id="v-2536"  label-idx="0" cursor="move" transform="matrix(1,0,0,1,1484,999)" style="cursor: default; opacity: 1;"><rect joint-selector="rect" id="v-2539" fill="#ffffff" rx="3" ry="3" pointer-events="none" width="135.42135620117188" height="91.54399490356445" transform="matrix(1,0,0,1,-67.2,-45.8)"></rect><text joint-selector="text" id="v-2538" font-size="24px" xml:space="preserve" y="0.8em" fill="#707070" text-anchor="middle" pointer-events="none" font-family="Open Sans" font-weight="normal" transform="matrix(1,0,0,1,0,-38.9)"><tspan dy="0" >Request</tspan><tspan dy="1.2em" x="0" >reloading of</tspan><tspan dy="1.2em" x="0" >payments</tspan></text></g><g id="v-2537"  label-idx="1" cursor="move" transform="matrix(1,0,0,1,1474,1056)" style="cursor: default; opacity: 1;"><rect joint-selector="rect" id="v-2541" fill="#ffffff" rx="3" ry="3"  width="0" height="0" transform="matrix(1,0,0,1,0,0)" display="none"></rect><text joint-selector="text" id="v-2540" fill="#000000" font-size="14" text-anchor="middle" pointer-events="none"></text></g></g><g  display="none" style="display: none;"></g><g  id="v-2546" display="none"><g  id="v-2534"><path  end="source" d="M 26 0 L 0 13 L 26 26 z"></path></g><g  id="v-2535"><path  end="target" d="M 26 0 L 0 13 L 26 26 z"></path></g></g><g  id="v-2545" display="none"><g  id="v-2533" transform="translate(1251.4422354160572, 632.7672998678067) "><g  event="remove"><circle r="11"></circle><path transform="scale(.8) translate(-16, -16)" d="M24.778,21.419 19.276,15.917 24.777,10.415 21.949,7.585 16.447,13.087 10.945,7.585 8.117,10.415 13.618,15.917 8.116,21.419 10.946,24.248 16.447,18.746 21.948,24.248z"></path><title>Remove link.</title></g><g  event="link:options"><circle r="11" transform="translate(25)"></circle><path fill="white" transform="scale(.55) translate(29, -16)" d="M31.229,17.736c0.064-0.571,0.104-1.148,0.104-1.736s-0.04-1.166-0.104-1.737l-4.377-1.557c-0.218-0.716-0.504-1.401-0.851-2.05l1.993-4.192c-0.725-0.91-1.549-1.734-2.458-2.459l-4.193,1.994c-0.647-0.347-1.334-0.632-2.049-0.849l-1.558-4.378C17.165,0.708,16.588,0.667,16,0.667s-1.166,0.041-1.737,0.105L12.707,5.15c-0.716,0.217-1.401,0.502-2.05,0.849L6.464,4.005C5.554,4.73,4.73,5.554,4.005,6.464l1.994,4.192c-0.347,0.648-0.632,1.334-0.849,2.05l-4.378,1.557C0.708,14.834,0.667,15.412,0.667,16s0.041,1.165,0.105,1.736l4.378,1.558c0.217,0.715,0.502,1.401,0.849,2.049l-1.994,4.193c0.725,0.909,1.549,1.733,2.459,2.458l4.192-1.993c0.648,0.347,1.334,0.633,2.05,0.851l1.557,4.377c0.571,0.064,1.148,0.104,1.737,0.104c0.588,0,1.165-0.04,1.736-0.104l1.558-4.377c0.715-0.218,1.399-0.504,2.049-0.851l4.193,1.993c0.909-0.725,1.733-1.549,2.458-2.458l-1.993-4.193c0.347-0.647,0.633-1.334,0.851-2.049L31.229,17.736zM16,20.871c-2.69,0-4.872-2.182-4.872-4.871c0-2.69,2.182-4.872,4.872-4.872c2.689,0,4.871,2.182,4.871,4.872C20.871,18.689,18.689,20.871,16,20.871z"></path><title>Link options.</title></g></g></g></g><g   id="j_182" ><path  stroke="#707070" d="M 589 1099 L 918 1399" id="v-2559" stroke-width="2" stroke-dasharray="30 30" fill="none" style="opacity: 1;"></path><path  fill="black" stroke="black" d="M 0 0 0 0" transform="matrix(0.7394321666305267,0.6732310680235167,-0.6732310680235167,0.7394321666305267,588.75,1099)"></path><path  fill="#707070" stroke="#707070" d="M 20 0 L 0 10 L 20 20 z" id="v-2561" transform="matrix(-0.739432076984381,-0.6732311664848595,0.6732311664848595,-0.739432076984381,911.517660960464,1406.394332630005)" style="opacity: 1;"></path><path  d="M 589 1099 L 918 1399" id="v-2560" fill="none" style="cursor: auto; pointer-events: visiblepainted;"></path><g ><g id="v-2553"  label-idx="0" cursor="move" transform="matrix(1,0,0,1,753.5,1249)" style="cursor: default; opacity: 1;"><rect joint-selector="rect" id="v-2556" fill="#ffffff" rx="3" ry="3" pointer-events="none" width="191.4245147705078" height="62.74398994445801" transform="matrix(1,0,0,1,-95.7,-31.4)"></rect><text joint-selector="text" id="v-2555" font-size="24px" xml:space="preserve" y="0.8em" fill="#707070" text-anchor="middle" pointer-events="none" font-family="Open Sans" font-weight="normal" transform="matrix(1,0,0,1,0,-24.5)"><tspan dy="0" >Refreshes and</tspan><tspan dy="1.2em" x="0" >retrieves balance</tspan></text></g><g id="v-2554"  label-idx="1" cursor="move" transform="matrix(1,0,0,1,743.5,1291)" style="cursor: default; opacity: 1;"><rect joint-selector="rect" id="v-2558" fill="#ffffff" rx="3" ry="3"  width="0" height="0" transform="matrix(1,0,0,1,0,0)" display="none"></rect><text joint-selector="text" id="v-2557" fill="#000000" font-size="14" text-anchor="middle" pointer-events="none"></text></g></g><g  display="none" style="display: none;"></g><g  id="v-2563" display="none"><g  id="v-2551"><path  end="source" d="M 26 0 L 0 13 L 26 26 z"></path></g><g  id="v-2552"><path  end="target" d="M 26 0 L 0 13 L 26 26 z"></path></g></g><g  id="v-2562" display="none"><g  id="v-2550" transform="translate(618.5569181812281, 1125.95159712574) "><g  event="remove"><circle r="11"></circle><path transform="scale(.8) translate(-16, -16)" d="M24.778,21.419 19.276,15.917 24.777,10.415 21.949,7.585 16.447,13.087 10.945,7.585 8.117,10.415 13.618,15.917 8.116,21.419 10.946,24.248 16.447,18.746 21.948,24.248z"></path><title>Remove link.</title></g><g  event="link:options"><circle r="11" transform="translate(25)"></circle><path fill="white" transform="scale(.55) translate(29, -16)" d="M31.229,17.736c0.064-0.571,0.104-1.148,0.104-1.736s-0.04-1.166-0.104-1.737l-4.377-1.557c-0.218-0.716-0.504-1.401-0.851-2.05l1.993-4.192c-0.725-0.91-1.549-1.734-2.458-2.459l-4.193,1.994c-0.647-0.347-1.334-0.632-2.049-0.849l-1.558-4.378C17.165,0.708,16.588,0.667,16,0.667s-1.166,0.041-1.737,0.105L12.707,5.15c-0.716,0.217-1.401,0.502-2.05,0.849L6.464,4.005C5.554,4.73,4.73,5.554,4.005,6.464l1.994,4.192c-0.347,0.648-0.632,1.334-0.849,2.05l-4.378,1.557C0.708,14.834,0.667,15.412,0.667,16s0.041,1.165,0.105,1.736l4.378,1.558c0.217,0.715,0.502,1.401,0.849,2.049l-1.994,4.193c0.725,0.909,1.549,1.733,2.459,2.458l4.192-1.993c0.648,0.347,1.334,0.633,2.05,0.851l1.557,4.377c0.571,0.064,1.148,0.104,1.737,0.104c0.588,0,1.165-0.04,1.736-0.104l1.558-4.377c0.715-0.218,1.399-0.504,2.049-0.851l4.193,1.993c0.909-0.725,1.733-1.549,2.458-2.458l-1.993-4.193c0.347-0.647,0.633-1.334,0.851-2.049L31.229,17.736zM16,20.871c-2.69,0-4.872-2.182-4.872-4.871c0-2.69,2.182-4.872,4.872-4.872c2.689,0,4.871,2.182,4.871,4.872C20.871,18.689,18.689,20.871,16,20.871z"></path><title>Link options.</title></g></g></g></g></g><g ></g><g ></g><g ></g></g></svg>